<?xml version="1.0" encoding="UTF-8" standalone="no"?>
<svg
   width="20"
   height="19.9"
   viewBox="0 0 20 19.9"
   fill="none"
   version="1.1"
   id="svg1"
   sodipodi:docname="exequextrerrors.svg"
   xml:space="preserve"
   xmlns:inkscape="http://www.inkscape.org/namespaces/inkscape"
   xmlns:sodipodi="http://sodipodi.sourceforge.net/DTD/sodipodi-0.dtd"
   xmlns="http://www.w3.org/2000/svg"
   xmlns:svg="http://www.w3.org/2000/svg"><sodipodi:namedview
     id="namedview1"
     pagecolor="#ffffff"
     bordercolor="#000000"
     borderopacity="0.25"
     inkscape:showpageshadow="2"
     inkscape:pageopacity="0.0"
     inkscape:pagecheckerboard="0"
     inkscape:deskcolor="#d1d1d1"
     showgrid="false"><inkscape:page
       x="0"
       y="0"
       width="20"
       height="19.9"
       id="page2"
       margin="0"
       bleed="0" /></sodipodi:namedview><defs
     id="defs1" /><g
     id="g36"
     transform="translate(-2.1384215,-1.418696)"><g
       style="fill:#e3e3e3"
       id="g8"
       transform="matrix(0.025,0,0,0.025,0.13842183,23.368694)"><path
         d="m 170,-228 q -38,-45 -61,-99 -23,-54 -29,-113 h 82 q 6,43 22,82.5 16,39.5 42,73.5 z M 80,-520 q 8,-59 30,-113 22,-54 60,-99 l 56,56 q -26,34 -42,73.5 -16,39.5 -22,82.5 z M 438,-82 Q 379,-88 325.5,-110.5 272,-133 226,-170 l 56,-58 q 35,26 74,43 39,17 82,23 z m -154,-650 -58,-58 q 47,-37 101,-59.5 54,-22.5 113,-28.5 v 80 q -43,6 -82.5,23 -39.5,17 -73.5,43 z m 196,372 q -50,0 -85,-35 -35,-35 -35,-85 0,-50 35,-85 35,-35 85,-35 50,0 85,35 35,35 35,85 0,50 -35,85 -35,35 -85,35 z m 38,278 v -80 q 44,-6 83.5,-22.5 Q 641,-201 676,-228 l 58,58 q -47,38 -101.5,60 Q 578,-88 518,-82 Z m 160,-650 q -35,-26 -75,-43 -40,-17 -83,-23 v -80 q 59,6 113.5,28.5 Q 688,-827 734,-790 Z m 112,504 -56,-56 q 26,-34 42,-73.5 16,-39.5 22,-82.5 h 82 q -8,59 -30,113 -22,54 -60,99 z m 8,-292 q -6,-43 -22,-82.5 -16,-39.5 -42,-73.5 l 56,-56 q 38,45 61,99 23,54 29,113 z"
         id="path1-7" /></g><path
       style="opacity:0.68;fill:#282573;fill-opacity:1;stroke-width:0.124191"
       d="m 10.795879,13.940492 c -2.1067933,-1.067111 -2.1114887,-4.0566488 -0.0081,-5.149383 1.11006,-0.5766853 2.299445,-0.4443072 3.239782,0.3605862 0.694519,0.5944827 0.994139,1.2610958 0.994139,2.2118238 0,2.25145 -2.20899,3.598523 -4.225833,2.576973 z"
       id="path9" /><path
       style="opacity:0.68;fill:#282573;fill-opacity:0.898039;stroke-width:0.124191"
       d="M 11.525366,14.101573 C 10.626621,13.869875 10.011468,13.396718 9.6401026,12.651484 8.2553023,9.8725521 11.629923,7.2438768 14.008033,9.2490663 c 1.139889,0.9611387 1.225813,2.9738897 0.174253,4.0818417 -0.698666,0.736134 -1.68317,1.021699 -2.65692,0.770665 z"
       id="path11" /><path
       style="opacity:0.68;fill:#282573;fill-opacity:0.898039;stroke-width:0.124191"
       d="m 16.365725,4.5302419 c -0.663683,-0.393456 -2.07846,-0.9420103 -2.859904,-1.1088765 -0.33564,-0.071671 -0.341526,-0.088941 -0.341526,-1.001998 0,-0.6609256 0.0448,-0.9288187 0.155239,-0.9281998 0.08538,4.786e-4 0.630272,0.1140731 1.210867,0.2524322 1.144192,0.2726677 2.809473,1.0328639 3.458044,1.5785881 l 0.405811,0.3414602 -0.658965,0.6439323 -0.658965,0.6439322 z"
       id="path12" /><path
       style="opacity:0.68;fill:#282573;fill-opacity:0.898039;stroke-width:0.124191"
       d="M 6.5814674,4.2839168 C 5.9329672,3.6272598 5.9184062,3.5977021 6.1530066,3.4141809 7.121809,2.6563142 9.194937,1.775026 10.525226,1.555547 L 11.05304,1.4684652 V 2.4060305 3.3435958 L 10.525226,3.4769403 C 9.3974312,3.7618617 8.4592769,4.1674109 7.5694698,4.754667 7.2547852,4.9623531 7.2485355,4.9593754 6.5814674,4.2839168 Z"
       id="path13" /><path
       style="opacity:0.68;fill:#282573;fill-opacity:0.898039;stroke-width:0.124191"
       d="m 2.2354463,10.078625 c 0,-0.4339792 0.6162778,-2.3766517 0.9829879,-3.0986409 C 3.4163049,6.5904107 3.7564103,6.0273226 3.974224,5.7286772 L 4.3702487,5.1856856 5.0352866,5.8424624 5.7003245,6.4992392 5.4741101,6.8201241 C 5.0326969,7.4462688 4.573762,8.484823 4.3520442,9.3593217 l -0.224754,0.8864743 -0.9459219,0.03627 c -0.864253,0.03314 -0.945922,0.01558 -0.945922,-0.203442 z"
       id="path14" /><path
       style="opacity:0.68;fill:#282573;fill-opacity:0.898039;stroke-width:0.124191"
       d="M 3.9741191,16.99836 C 3.3540877,16.148457 2.7370188,14.83731 2.4751163,13.813281 2.1011358,12.351031 2.0745552,12.402529 3.1813683,12.44497 l 0.9459219,0.03627 0.224754,0.886474 c 0.2217178,0.874498 0.6806527,1.913053 1.1220659,2.539197 l 0.2262144,0.320885 -0.6650379,0.656777 -0.6650379,0.656777 z"
       id="path15" /><path
       style="opacity:0.68;fill:#282573;fill-opacity:0.898039;stroke-width:0.124191"
       d="M 9.5668784,20.972771 C 8.6688118,20.731715 6.833583,19.862323 6.2189285,19.386766 L 5.9178052,19.153787 6.5134453,18.456583 c 0.327602,-0.383462 0.6221388,-0.697204 0.6545261,-0.697204 0.032387,0 0.2205239,0.115096 0.4180811,0.255769 0.5447916,0.387926 2.0821353,1.060423 2.8149825,1.231388 l 0.652005,0.152106 v 0.919049 c 0,1.077348 0.03294,1.06283 -1.4861616,0.65508 z"
       id="path16" /><path
       style="opacity:0.68;fill:#282573;fill-opacity:0.898039;stroke-width:0.124191"
       d="m 13.164295,20.313673 c 0,-1.004669 -0.0399,-0.952792 0.86934,-1.130324 0.624051,-0.121848 1.572727,-0.535039 2.346011,-1.021793 l 0.669426,-0.421379 0.672592,0.661606 0.672592,0.661606 -0.410582,0.349821 c -0.602916,0.513692 -2.269582,1.288291 -3.386699,1.574002 -1.488253,0.380631 -1.43268,0.406757 -1.43268,-0.673539 z"
       id="path17" /><path
       style="opacity:0.68;fill:#282573;fill-opacity:0.898039;stroke-width:0.124191"
       d="m 19.213488,16.916341 -0.585713,-0.594654 0.541621,-1.052584 c 0.297891,-0.57892 0.645799,-1.456992 0.773127,-1.95127 l 0.231508,-0.898687 h 0.949991 0.949991 l -0.108858,0.58991 c -0.155446,0.842368 -0.568523,2.079747 -0.939617,2.814633 -0.383717,0.759886 -1.007286,1.687307 -1.134491,1.687307 -0.05052,0 -0.355417,-0.267594 -0.677559,-0.594655 z"
       id="path18" /><path
       style="opacity:0.68;fill:#3f3d80;fill-opacity:1;stroke-width:0.124191"
       d="M 19.955764,9.460602 C 19.743541,8.6367749 19.24404,7.4936115 18.792778,6.7989818 L 18.570582,6.4569545 19.222167,5.8054501 19.873753,5.1539457 20.178828,5.52652 c 0.733989,0.8963897 1.612747,2.9733473 1.852219,4.3777491 l 0.06882,0.4036219 h -0.96292 -0.96292 z"
       id="path19" /><path
       style="opacity:0.68;fill:#3f3d80;fill-opacity:1;stroke-width:0.124191"
       d="M 16.206986,4.3989876 C 15.797154,4.170419 14.978497,3.8289686 14.387748,3.6402092 13.333631,3.3033924 13.312576,3.2888723 13.255443,2.8593719 c -0.03202,-0.2407011 -0.03056,-0.6245466 0.0032,-0.8529899 0.06124,-0.4139795 0.06324,-0.4150819 0.605601,-0.3337505 1.15632,0.1734009 3.114975,0.985279 3.99502,1.6559679 l 0.410395,0.3127648 -0.592013,0.6010514 c -0.325608,0.3305783 -0.622058,0.594549 -0.658778,0.5866015 -0.03672,-0.00795 -0.402081,-0.2014607 -0.811913,-0.4300295 z"
       id="path20" /><path
       style="opacity:0.68;fill:#3f3d80;fill-opacity:1;stroke-width:0.124191"
       d="M 19.99892,9.4075032 C 19.851255,8.9122898 19.502173,8.0411401 19.223182,7.471615 L 18.715924,6.4361149 19.294909,5.8571305 19.873893,5.2781462 20.172862,5.650716 c 0.627678,0.7822009 1.580309,3.0283289 1.75941,4.1483628 l 0.08136,0.5088122 h -0.873116 -0.873117 z"
       id="path21" /><path
       style="opacity:0.68;fill:#3f3d80;fill-opacity:1;stroke-width:0.124191"
       d="M 19.27391,16.852635 18.747103,16.315858 19.23586,15.26789 c 0.268817,-0.576382 0.610884,-1.453142 0.760149,-1.948356 l 0.271392,-0.900388 h 0.871065 0.871066 l -0.08538,0.465718 c -0.264525,1.44287 -1.550969,4.320524 -1.995331,4.463368 -0.07046,0.02265 -0.365166,-0.20037 -0.654909,-0.495597 z"
       id="path22" /><path
       style="opacity:0.68;fill:#3f3d80;fill-opacity:1;stroke-width:0.124191"
       d="m 13.246432,20.840955 c -0.08808,-0.336811 0.03931,-1.326542 0.1821,-1.41479 0.05795,-0.03581 0.427371,-0.148956 0.820947,-0.251432 0.393576,-0.102476 1.186691,-0.436893 1.762478,-0.74315 l 1.046886,-0.556829 0.596206,0.587241 c 0.572482,0.563873 0.58766,0.596683 0.381443,0.824551 -0.309406,0.341889 -2.565711,1.406141 -3.461922,1.632916 -1.028067,0.260139 -1.2429,0.247441 -1.328138,-0.07851 z"
       id="path23" /><path
       style="opacity:0.68;fill:#3f3d80;fill-opacity:1;stroke-width:0.124191"
       d="m 9.3143596,20.795893 c -0.9898106,-0.324122 -3.120829,-1.40016 -3.1851473,-1.608312 -0.021106,-0.06831 0.1979138,-0.390655 0.486711,-0.716333 l 0.5250857,-0.592142 1.2202501,0.616383 c 0.6711375,0.339011 1.5290533,0.68549 1.9064799,0.769954 0.377426,0.08446 0.714847,0.228148 0.749824,0.319296 0.03498,0.09115 0.0253,0.472193 -0.0215,0.846767 -0.07954,0.636587 -0.106801,0.680662 -0.417681,0.675217 -0.182925,-0.0032 -0.7517366,-0.143077 -1.2640264,-0.31083 z"
       id="path24" /><path
       style="opacity:0.68;fill:#3f3d80;fill-opacity:1;stroke-width:0.124191"
       d="M 3.978262,16.876038 C 3.2704866,15.898983 2.5477858,14.162342 2.3998709,13.083185 l -0.073994,-0.539847 h 0.8677882 0.8677883 l 0.2252594,0.838292 c 0.1238926,0.461061 0.4595497,1.295317 0.7459046,1.853904 l 0.520645,1.015611 -0.5916739,0.582777 -0.5916738,0.582777 z"
       id="path25" /><path
       style="opacity:0.68;fill:#3f3d80;fill-opacity:1;stroke-width:0.124191"
       d="m 2.3596378,9.8844204 c 0,-0.5280849 0.7392386,-2.5952518 1.2031305,-3.3643687 C 4.3431078,5.2262751 4.302553,5.24399 4.9727804,5.9041393 L 5.5532621,6.4758925 5.0326171,7.4915038 C 4.7462622,8.0500901 4.4106051,8.8843467 4.2867125,9.3454075 L 4.0614531,10.1837 H 3.2105454 c -0.8163494,0 -0.8509076,-0.01215 -0.8509076,-0.2992796 z"
       id="path26" /><path
       style="opacity:0.68;fill:#3f3d80;fill-opacity:1;stroke-width:0.124191"
       d="M 6.6369938,4.2121472 C 5.9178546,3.4785112 5.8927947,3.5237952 7.4514877,2.7403309 8.5888144,2.1686628 9.2616995,1.9182654 10.282087,1.6869937 l 0.781439,-0.177114 -0.03629,0.8743929 -0.03629,0.8743929 -1.0957389,0.3567213 C 9.2925485,3.8115836 8.4509939,4.1669849 8.0250837,4.4051674 l -0.774382,0.4330592 z"
       id="path27" /><path
       style="opacity:0.68;fill:#282672;fill-opacity:0.878431;stroke-width:0.124191"
       d="m 11.328967,13.975299 c -1.178082,-0.367873 -1.9061665,-1.347852 -1.9160014,-2.578878 -0.0064,-0.80152 0.2325873,-1.3977215 0.7700694,-1.9210648 0.594036,-0.578409 1.201456,-0.8324816 1.987728,-0.8314306 1.783901,0.00238 3.025537,1.6454004 2.600911,3.4416984 -0.115735,0.489594 -0.289459,0.782076 -0.724568,1.219886 -0.811356,0.816394 -1.614709,1.014351 -2.718139,0.669789 z"
       id="path28" /><path
       style="opacity:0.68;fill:#282672;fill-opacity:0.878431;stroke-width:0.124191"
       d="M 6.7011487,4.1524313 C 6.1600163,3.5984244 6.1531025,3.5812108 6.3958603,3.392348 7.1458025,2.8089015 10.805109,1.3939022 10.965387,1.6253801 c 0.0195,0.028162 0.01457,0.3949086 -0.01095,0.8149912 l -0.0464,0.7637865 -0.9520783,0.3375066 C 9.4323164,3.727293 8.6280446,4.0681945 8.1686889,4.2992233 7.7093333,4.530252 7.3157946,4.7192755 7.2941585,4.7192755 c -0.021636,0 -0.2884905,-0.2550799 -0.5930098,-0.5668442 z"
       id="path29" /><path
       style="opacity:0.68;fill:#282672;fill-opacity:0.878431;stroke-width:0.124191"
       d="M 2.6504266,10.062776 C 2.4089192,9.9627291 2.3935325,9.9019712 2.495159,9.4496649 2.7596604,8.2724552 3.7565649,6.0723857 4.212418,5.6598444 4.4053164,5.4852737 4.4684456,5.514625 4.9454575,6.0006648 L 5.4674208,6.5325067 5.10134,7.2093322 C 4.8999956,7.5815863 4.5667371,8.3891332 4.3607656,9.003881 l -0.3744936,1.117723 -0.5338863,0.02611 c -0.2936375,0.01436 -0.6545191,-0.02386 -0.8019591,-0.08494 z"
       id="path30" /><path
       style="opacity:0.68;fill:#282672;fill-opacity:0.878431;stroke-width:0.124191"
       d="M 3.8812316,16.610608 C 3.1283467,15.363942 2.6530434,14.156779 2.4365057,12.941331 l -0.07291,-0.409252 0.8111286,0.03668 0.8111285,0.03668 0.3747033,1.117724 c 0.2060868,0.614747 0.5394395,1.422294 0.7407839,1.794548 l 0.3660808,0.676826 -0.5241217,0.534041 c -0.2882669,0.293723 -0.556564,0.534041 -0.5962156,0.534041 -0.039651,0 -0.2492849,-0.293402 -0.4658519,-0.652005 z"
       id="path31" /><path
       style="opacity:0.68;fill:#282672;fill-opacity:0.878431;stroke-width:0.124191"
       d="M 9.2860405,20.723678 C 8.3600414,20.396993 6.3039499,19.350403 6.2467508,19.176622 6.2222847,19.102289 6.4200373,18.796074 6.6862011,18.496145 l 0.4839341,-0.545325 1.041262,0.515965 c 0.5726941,0.283782 1.4209342,0.640604 1.8849778,0.792938 l 0.843716,0.276973 -0.03667,0.694782 -0.03667,0.694783 -0.43467,0.02419 c -0.239069,0.0133 -0.7547877,-0.08874 -1.1460425,-0.226775 z"
       id="path32" /><path
       style="opacity:0.68;fill:#282672;fill-opacity:0.878431;stroke-width:0.124191"
       d="m 13.288486,20.499676 c 0,-0.836483 0.158936,-1.074168 0.828695,-1.239292 0.329729,-0.08129 1.123532,-0.401078 1.764007,-0.710634 l 1.1645,-0.56283 0.540933,0.530886 c 0.493475,0.484309 0.524245,0.549326 0.35072,0.74107 -0.255806,0.282662 -2.310641,1.280276 -3.15005,1.529337 -0.371,0.110079 -0.860004,0.200144 -1.086675,0.200144 -0.396887,0 -0.41213,-0.01807 -0.41213,-0.488681 z"
       id="path33" /><path
       style="opacity:0.68;fill:#282672;fill-opacity:0.878431;stroke-width:0.124191"
       d="m 19.317421,16.771632 -0.479431,-0.490981 0.355977,-0.781982 c 0.195788,-0.430089 0.532723,-1.284956 0.748745,-1.899704 l 0.392768,-1.117723 0.813462,-0.0365 0.813462,-0.0365 -0.17261,0.739912 c -0.338635,1.4516 -1.562625,4.114459 -1.891221,4.114459 -0.05595,0 -0.317466,-0.220941 -0.581152,-0.490981 z"
       id="path34" /><path
       style="opacity:0.68;fill:#282672;fill-opacity:0.878431;stroke-width:0.124191"
       d="M 20.32926,10.214748 C 20.30022,10.163519 20.148156,9.730401 19.99134,9.2522639 19.834523,8.7741268 19.519668,7.9932972 19.291661,7.5170871 19.063653,7.0408769 18.877102,6.5911582 18.877102,6.5177119 c 0,-0.073446 0.227479,-0.3544537 0.505509,-0.624461 l 0.505509,-0.4909223 0.253682,0.3104786 c 0.563099,0.689171 1.54947,3.0380204 1.760153,4.1914619 l 0.07372,0.4036219 h -0.79681 c -0.438246,0 -0.82057,-0.04191 -0.849609,-0.09314 z"
       id="path35" /><path
       style="opacity:0.68;fill:#282672;fill-opacity:0.878431;stroke-width:0.124191"
       d="M 16.020699,4.2681986 C 15.576714,4.0414475 14.850194,3.7353652 14.40621,3.5880158 13.313672,3.2254249 13.270207,3.1794619 13.313738,2.4327645 c 0.03518,-0.6035152 0.05383,-0.6336523 0.413893,-0.6689228 0.69308,-0.067892 3.462194,1.0478371 4.190677,1.6885042 0.208856,0.1836793 0.192048,0.2239068 -0.305288,0.7306554 -0.289473,0.2949509 -0.584535,0.5275438 -0.655695,0.5168732 -0.07116,-0.010671 -0.492642,-0.2049248 -0.936626,-0.4316759 z"
       id="path36" /></g></svg>
