<svg xmlns:inkscape="http://www.inkscape.org/namespaces/inkscape" xmlns:sodipodi="http://sodipodi.sourceforge.net/DTD/sodipodi-0.dtd" xmlns="http://www.w3.org/2000/svg" xmlns:svg="http://www.w3.org/2000/svg" width="19.999998" height="20.000002" viewBox="0 0 19.999998 20.000002" fill="none" version="1.1" id="svg1" sodipodi:docname="exequextrerrors.svg" xml:space="preserve"><sodipodi:namedview id="namedview1" pagecolor="#ffffff" bordercolor="#000000" borderopacity="0.25" inkscape:showpageshadow="2" inkscape:pageopacity="0.0" inkscape:pagecheckerboard="0" inkscape:deskcolor="#d1d1d1" showgrid="false" fill="#000000"><inkscape:page x="0" y="0" width="19.999998" height="20.000002" id="page2" margin="0" bleed="0" fill="#000000"/></sodipodi:namedview><defs id="defs1" fill="#000000"/><g style="fill:#db404b;fill-opacity:1" id="g41" transform="matrix(0.025,0,0,0.025,-2.0000018,22.000001)"><path d="m 560,-360 h 80 V -760 H 480 v 80 h 80 z m -240,120 q -33,0 -56.5,-23.5 Q 240,-287 240,-320 v -480 q 0,-33 23.5,-56.5 Q 287,-880 320,-880 h 480 q 33,0 56.5,23.5 23.5,23.5 23.5,56.5 v 480 q 0,33 -23.5,56.5 Q 833,-240 800,-240 Z M 160,-80 q -33,0 -56.5,-23.5 Q 80,-127 80,-160 v -560 h 80 v 560 h 560 v 80 z" id="path1-54" style="fill:#db404b;fill-opacity:1"/></g></svg>